<svg width="20" height="20" viewBox="0 0 20 20" fill="none" xmlns="http://www.w3.org/2000/svg">
<g clip-path="url(#clip0_3_91)">
<path d="M18.3334 20L13.9584 15.8333L14.4834 17.5H3.75008C3.19755 17.5 2.66764 17.2805 2.27694 16.8898C1.88624 16.4991 1.66675 15.9692 1.66675 15.4167V2.91668C1.66675 2.36414 1.88624 1.83424 2.27694 1.44354C2.66764 1.05284 3.19755 0.833344 3.75008 0.833344H16.2501C16.8026 0.833344 17.3325 1.05284 17.7232 1.44354C18.1139 1.83424 18.3334 2.36414 18.3334 2.91668V20ZM10.0001 5.66668C7.76675 5.66668 6.20008 6.62501 6.20008 6.62501C7.05841 5.85834 8.55841 5.41668 8.55841 5.41668L8.41675 5.27501C7.00841 5.30001 5.73341 6.27501 5.73341 6.27501C4.30008 9.26668 4.39175 11.85 4.39175 11.85C5.55841 13.3583 7.29175 13.25 7.29175 13.25L7.88341 12.5C6.84175 12.275 6.18341 11.35 6.18341 11.35C6.18341 11.35 7.75008 12.4167 10.0001 12.4167C12.2501 12.4167 13.8167 11.35 13.8167 11.35C13.8167 11.35 13.1584 12.275 12.1167 12.5L12.7084 13.25C12.7084 13.25 14.4417 13.3583 15.6084 11.85C15.6084 11.85 15.7001 9.26668 14.2667 6.27501C14.2667 6.27501 12.9917 5.30001 11.5834 5.27501L11.4417 5.41668C11.4417 5.41668 12.9417 5.85834 13.8001 6.62501C13.8001 6.62501 12.2334 5.66668 10.0001 5.66668ZM8.27508 8.82501C8.81675 8.82501 9.25841 9.30001 9.25008 9.88334C9.25008 10.4583 8.81675 10.9417 8.27508 10.9417C7.74175 10.9417 7.30841 10.4583 7.30841 9.88334C7.30841 9.30001 7.73341 8.82501 8.27508 8.82501ZM11.7501 8.82501C12.2917 8.82501 12.7251 9.30001 12.7251 9.88334C12.7251 10.4583 12.2917 10.9417 11.7501 10.9417C11.2167 10.9417 10.7834 10.4583 10.7834 9.88334C10.7834 9.30001 11.2084 8.82501 11.7501 8.82501Z" fill="white"/>
</g>
<defs>
<clipPath id="clip0_3_91">
<rect width="20" height="20" fill="white"/>
</clipPath>
</defs>
</svg>
