<svg width="115" height="19" viewBox="0 0 115 19" fill="none" xmlns="http://www.w3.org/2000/svg">
<path d="M6.224 18.264C9.464 18.264 11.984 16.296 11.984 13.464C11.984 10.056 9.056 9.264 6.656 8.784C4.712 8.4 3.008 8.016 3.008 6.288C3.008 4.92 4.328 3.96 5.96 3.96C7.736 3.96 8.96 4.776 9.608 6.096L11.648 5.04C10.688 2.832 8.504 1.68 6.056 1.68C3.008 1.68 0.584 3.696 0.584 6.36C0.584 9.768 3.584 10.56 6.008 11.04C7.904 11.4 9.536 11.712 9.536 13.488C9.536 15.072 8.096 15.96 6.224 15.96C4.328 15.96 2.96 15.216 2.336 13.824L0.272 14.832C1.232 17.04 3.512 18.264 6.224 18.264ZM20.4734 18.264C22.7774 18.264 24.6734 17.184 25.7054 15.168L23.8814 14.232C23.1854 15.528 21.8894 16.152 20.4494 16.152C18.3374 16.152 16.8014 14.736 16.5374 12.72H25.9454V11.76C25.9454 8.472 23.7374 5.904 20.1854 5.904C16.6574 5.904 14.2334 8.664 14.2334 12.048C14.2334 15.672 16.8974 18.264 20.4734 18.264ZM16.6334 11.184C16.8734 9.432 18.1694 8.04 20.1614 8.04C22.1054 8.04 23.4734 9.312 23.5694 11.184H16.6334ZM31.1581 18V11.088C31.1581 9.36 32.1181 8.28 33.7021 8.28C34.3501 8.28 35.0221 8.448 35.5981 8.784V6.432C34.9981 6.144 34.2301 6 33.4861 6C30.4141 6 28.7821 8.136 28.7821 10.992V18H31.1581ZM42.8328 18.264C45.1368 18.264 47.0328 17.184 48.0648 15.168L46.2408 14.232C45.5448 15.528 44.2488 16.152 42.8088 16.152C40.6968 16.152 39.1608 14.736 38.8968 12.72H48.3048V11.76C48.3048 8.472 46.0968 5.904 42.5448 5.904C39.0168 5.904 36.5928 8.664 36.5928 12.048C36.5928 15.672 39.2568 18.264 42.8328 18.264ZM38.9928 11.184C39.2328 9.432 40.5288 8.04 42.5208 8.04C44.4648 8.04 45.8328 9.312 45.9288 11.184H38.9928ZM56.9735 8.232C59.3255 8.232 60.5255 10.128 60.5255 12.336V18H62.9015V12.048C62.9015 8.64 60.8135 5.952 56.9735 5.952C53.1815 5.952 51.1415 8.64 51.1415 12.072V18H53.5175V12.312C53.5175 10.128 54.6695 8.232 56.9735 8.232ZM71.8256 18.288C75.3776 18.288 78.0896 15.624 78.0896 12.144V0.839999H75.7136L75.6896 7.704C74.7296 6.648 73.2896 5.952 71.7056 5.952C68.1536 5.952 65.5616 8.568 65.5616 12.144C65.5616 15.528 68.2496 18.288 71.8256 18.288ZM71.8256 16.056C69.6416 16.056 67.9376 14.28 67.9376 12.12C67.9376 9.984 69.6416 8.208 71.8256 8.208C74.0336 8.208 75.7136 9.984 75.7136 12.12C75.7136 14.28 74.0336 16.056 71.8256 16.056ZM86.6531 18.288C88.5731 18.288 90.1331 17.376 91.0211 15.936V18H93.2771V12.096C93.2771 8.592 90.5651 5.952 87.0131 5.952C83.4371 5.952 80.7491 8.736 80.7491 12.096C80.7491 15.504 83.2451 18.288 86.6531 18.288ZM87.0131 16.032C84.8291 16.032 83.1251 14.256 83.1251 12.12C83.1251 9.96 84.8291 8.184 87.0131 8.184C89.2211 8.184 90.9011 9.96 90.9011 12.12C90.9011 14.256 89.2211 16.032 87.0131 16.032ZM97.1606 0.839999V18H99.5366V0.839999H97.1606ZM108.903 18.264C111.207 18.264 113.103 17.184 114.135 15.168L112.311 14.232C111.615 15.528 110.319 16.152 108.879 16.152C106.767 16.152 105.231 14.736 104.967 12.72H114.375V11.76C114.375 8.472 112.167 5.904 108.615 5.904C105.087 5.904 102.663 8.664 102.663 12.048C102.663 15.672 105.327 18.264 108.903 18.264ZM105.063 11.184C105.303 9.432 106.599 8.04 108.591 8.04C110.535 8.04 111.903 9.312 111.999 11.184H105.063Z" fill="white"/>
</svg>
