<svg width="20" height="20" viewBox="0 0 20 20" fill="none" xmlns="http://www.w3.org/2000/svg">
<path d="M18.7168 5.00001C18.0751 5.29168 17.3834 5.48334 16.6668 5.57501C17.4001 5.13334 17.9668 4.43334 18.2334 3.59168C17.5418 4.00834 16.7751 4.30001 15.9668 4.46668C15.3084 3.75001 14.3834 3.33334 13.3334 3.33334C11.3751 3.33334 9.77511 4.93334 9.77511 6.90834C9.77511 7.19168 9.80845 7.46668 9.86678 7.72501C6.90011 7.57501 4.25845 6.15001 2.50011 3.99168C2.19178 4.51668 2.01678 5.13334 2.01678 5.78334C2.01678 7.02501 2.64178 8.12501 3.60845 8.75001C3.01678 8.75001 2.46678 8.58334 1.98345 8.33334V8.35834C1.98345 10.0917 3.21678 11.5417 4.85011 11.8667C4.32572 12.0102 3.77519 12.0302 3.24178 11.925C3.46812 12.6354 3.91139 13.257 4.50929 13.7025C5.10719 14.1479 5.82965 14.3948 6.57511 14.4083C5.31147 15.4087 3.74511 15.9494 2.13345 15.9417C1.85011 15.9417 1.56678 15.925 1.28345 15.8917C2.86678 16.9083 4.75011 17.5 6.76678 17.5C13.3334 17.5 16.9418 12.05 16.9418 7.32501C16.9418 7.16668 16.9418 7.01668 16.9334 6.85834C17.6334 6.35834 18.2334 5.72501 18.7168 5.00001Z" fill="white"/>
</svg>
